<svg xmlns="http://www.w3.org/2000/svg" version="1.1" xmlns:xlink="http://www.w3.org/1999/xlink" width="1000" height="1000"><g clip-path="url(#SvgjsClipPath1061)"><rect width="1000" height="1000" fill="#6b3df5"></rect><g transform="matrix(37.5,0,0,37.5,50,50)"><svg xmlns="http://www.w3.org/2000/svg" version="1.1" xmlns:xlink="http://www.w3.org/1999/xlink" width="24" height="24"><svg xmlns="http://www.w3.org/2000/svg" width="24" height="24" fill="none" stroke="#fff" stroke-linecap="round" stroke-linejoin="round" stroke-width="2" viewBox="0 0 24 24"><path d="M5 17.5A1.5 1.5 0 0 1 6.5 16h11a1.5 1.5 0 0 1 1.5 1.5v0a1.5 1.5 0 0 1-1.5 1.5h-11A1.5 1.5 0 0 1 5 17.5M12 16Q9.5 8 6 8q-2.5 0-3 2c2.953.31 3.308 3.33 4 6M12 16q2.5-8 6-8 2.5 0 3 2c-2.953.31-3.308 3.33-4 6"></path><path d="M9 9.5Q11 6 12 6t3 3.5"></path></svg></svg></g></g><defs><clipPath id="SvgjsClipPath1061"><rect width="1000" height="1000" x="0" y="0" rx="250" ry="250"></rect></clipPath></defs></svg>